<svg xmlns="http://www.w3.org/2000/svg" width="416.292" height="357.373" viewBox="0 0 416.292 357.373"><defs><style>.a{fill:none;stroke:#383838;stroke-linecap:round;stroke-linejoin:round;stroke-width:0.5px;}</style></defs><g transform="translate(0.284 0.252)"><path class="a" d="M454.629,170.62l.653,77.461c.065,7.57.159,15.336,2.439,22.382,1.839,5.685,5.074,10.8,5.75,16.856,1.391,12.457-8.263,22.685-10.3,35.007-2.056,12.436,3.874,24.605,5.26,37.176,2.552,23.113-10.365,46.306-5.881,68.98,2.644,13.361,11.084,24.551,12.312,38.21a10.041,10.041,0,0,1-.574,5.2c-3.173,6.544-15.2.028-16.2,7.523a385.849,385.849,0,0,0,46.1,48.075C428.81,490.85,353.3,504.2,281.342,507.2c-59.661,2.481-66.331-1.28-125.915-5.692" transform="translate(-78.423 -170.62)"/><path class="a" d="M553.131,216.617c3.818,24.615,1.544,17.084-4.214,41.127-2.179,9.1-5.05,18.142-5.183,27.618-.222,15.6,6.943,29.91,8.848,45.333,2.165,17.525-2.57,35.145-7.775,51.685-1.565,4.975-3.2,10.064-3.272,15.393a42.608,42.608,0,0,0,2.224,12.869,100.067,100.067,0,0,0,12.534,26.647c1.608,2.394,3.377,4.834,3.9,7.866,1.462,8.519-7.387,15.312-7.058,24.007.357,9.488,11.374,15.494,9.973,24.837-.56,3.733-3.036,6.522-5.374,9.019l-21.657,23.145c-1.007,1.076-2.1,2.2-3.426,2.4a5.766,5.766,0,0,1-3.277-.873c-7.84-3.856-25.657-30.221-43.741-29.4-35.667,1.616-68.515,28.386-104.2,29.116-5.753.117-11.974-.486-16.369-5.026-3.17-3.276-4.947-8.187-8-11.62-7.631-8.566-19.635-5.13-29.659-1.935a204.347,204.347,0,0,1-57.836,9.672c-33.162.689-66.443-6.82-99.371-1.963" transform="translate(-170.19 -176.382)"/></g></svg>