<svg xmlns="http://www.w3.org/2000/svg" width="215.268" height="382.726" viewBox="0 0 215.268 382.726"><defs><style>.a{fill:none;stroke:#383838;stroke-linecap:round;stroke-linejoin:round;stroke-width:0.5px;}</style></defs><path class="a" d="M416.1,636.343c71.8-10.366,144.3-.2,214.734-17.563a44.24,44.24,0,0,1-34.7-6.2c-1.846-1.241-3.695-2.762-4.336-4.892-1.095-3.636,1.674-7.167,3.992-10.175a62.675,62.675,0,0,0,12.15-47.174c-.43-2.793-1.115-5.69-2.991-7.8-3.452-3.89-9.548-3.8-14.032-6.433-8.971-5.272-7.961-19.135-2.035-27.686s15.158-14.378,21.122-22.9c10.281-14.691,9.047-34.247,7.393-52.1q-8.3-89.62-16.6-179.244" transform="translate(-415.815 -253.9)"/></svg>