<svg xmlns="http://www.w3.org/2000/svg" width="1377.512" height="53.55" viewBox="0 0 1377.512 53.55"><defs><style>.a{fill:none;stroke:#383838;stroke-linecap:round;stroke-linejoin:round;stroke-width:0.5px;}</style></defs><path class="a" d="M49.74,65.238l165.927-9.277c-7.37,13.94,19.49,27.048,43.408,26.254s44.521-9.926,65.8-16.658A323.08,323.08,0,0,1,399.186,51.7c13.845-.971,28.361-1.058,41.136,2.348,16.641,4.437,27.76,14.02,41.433,21.325,35.233,18.829,85.491,21.761,132.158,23.814,14.117.621,28.732,1.2,42.032-1.762,19.97-4.45,33.275-15.992,51.489-22.691,38.5-14.161,87.257-4.026,130.865,2.58a744.569,744.569,0,0,0,143.454,7.515c-2.559-5.063,7.337-8.987,15.6-10.587,69.067-13.379,144.049-4.984,214.124,6.262s203.242,26.464,213.035,23.193-16.733-4.708-4.9-7.919" transform="translate(-49.476 -50.912)"/></svg>