<svg xmlns="http://www.w3.org/2000/svg" width="180.399" height="452.541" viewBox="0 0 180.399 452.541"><defs><style>.a{fill:none;stroke:#383838;stroke-linecap:round;stroke-linejoin:round;stroke-width:0.5px;}</style></defs><path class="a" d="M-1-187.661c-21.192-26.638-101.037,12.614-144.523,0-6.108-1.771-13.007-4.314-15.183-10.286-2.992-8.205,6.054-16.727,14.784-16.742s26.536,1.145,23.432,10.609-28.373,13.529-35.847,27.247c-4.868,8.929.617,20.022,7.414,27.592s15.36,14.427,17.916,24.27c4.447,17.128-10.881,32.143-21.775,46.09C-190.956-32.571-184.466,34.2-165.136,89.7c8.645,24.818,19.554,49.205,22.822,75.282s-2.581,55.089-22.471,72.267" transform="translate(-0.651 237.6) rotate(180)"/></svg>