<svg xmlns="http://www.w3.org/2000/svg" width="196.202" height="151.3" viewBox="0 0 196.202 151.3"><defs><style>.a{fill:none;stroke:#383838;stroke-linecap:round;stroke-linejoin:round;stroke-width:0.5px;}</style></defs><path class="a" d="M90.122,187.945c-4.119,14.038-3.177,28.971-3.5,43.6s-2.241,30.02-10.989,41.746c-2.057,2.757-4.576,5.554-4.69,8.993-.267,8.251,12,10.407,16.194,17.519a6.031,6.031,0,0,1,.928,4.169,7.254,7.254,0,0,1-1.65,3.02c-4.6,5.646-11.325,9.045-17.094,13.489s-10.984,10.96-10.268,18.206c28.4-13.431,49.259-12.1,74.407-17.382,39.852-8.372,80.5,9.788,121.217,9.069" transform="translate(-58.735 -187.635)"/></svg>