<svg xmlns="http://www.w3.org/2000/svg" width="375.735" height="366.266" viewBox="0 0 375.735 366.266"><defs><style>.a{fill:none;stroke:#383838;stroke-linecap:round;stroke-linejoin:round;stroke-width:0.5px;}</style></defs><g transform="translate(-4.333 0.3)"><path class="a" d="M486.168,205.173c-3.276,14.194-6.571,28.774-4.56,43.2s10.527,28.889,24.277,33.7c3.294,1.152,6.863,1.761,9.731,3.752,6.81,4.727,6.672,15.244,2.7,22.52S507.64,320.962,502.57,327.52c-12.9,16.692-14.066,39.343-14.694,60.432-.537,17.992-.35,38.016,11.921,51.185,7.425,7.969,19.167,13.44,20.973,24.18,1.528,9.086-5.015,17.35-11.13,24.24L476.518,524.87c-2.222,2.5-4.6,5.861-3.2,8.9.864,1.884,2.908,2.888,4.83,3.662a74.6,74.6,0,0,0,40.161,4.348c7.179-1.217,15.913-6.477,13.707-13.417-21.919-8.557-46.5-3.972-69.559.723l-59.291,12.074c-11.953,2.433-24.752,4.8-36.029.146-6.1-2.516-11.216-6.9-16.963-10.138-27.2-15.326-60.69-2.594-91.076,4.569a240.772,240.772,0,0,1-86.06,4.4" transform="translate(-168.423 -205.173)"/><path class="a" d="M463.382,254.562c11.911,28.455,42.953,42.647,69.385,58.549,4.141,2.492,8.6,5.617,9.47,10.372.793,4.349-1.716,8.553-4.2,12.211-17.154,25.281-38.1,47.835-54.982,73.3s-29.824,55.078-28.04,85.577c1.026,17.547,4.652,39.946-10.736,48.441-8.97,4.953-20.7,1.646-28.349-5.175S403.84,521.393,399.746,512c-1.4-3.215-2.991-6.67-6.074-8.344-7-3.8-14.336,3.867-19.857,9.6-16.971,17.638-43.1,22.211-67.425,24.955-47.726,5.383-22.935,6.317-70.94,4.8" transform="translate(-162.546 -179.692)"/></g></svg>