<svg xmlns="http://www.w3.org/2000/svg" width="139.51" height="262.849" viewBox="0 0 139.51 262.849"><defs><style>.a{fill:none;stroke:#383838;stroke-linecap:round;stroke-linejoin:round;stroke-width:0.5px;}</style></defs><path class="a" d="M-60.447-235.246a430.114,430.114,0,0,1,24.422,40.211c2.2,4.108,4.373,8.424,4.551,13.078.726,19.025-28.925,25.33-33.71,43.757-3.475,13.377,7.6,25.589,16.524,36.146S-32.422-74.914-42-64.946c-5.159,5.375-14.592,7.864-15.4,15.269-.643,5.937,5.024,10.474,7.34,15.98C-44.4-20.273-59.778-7.331-73.8-3.4s-30.851,5.832-38.313,18.34a8.386,8.386,0,0,0-1.472,5.313c.6,4.286,5.865,5.923,10.168,6.41,35.705,4.035,75.881-20.584,128.72,0" transform="translate(113.889 235.594)"/></svg>