<svg xmlns="http://www.w3.org/2000/svg" width="370.722" height="185.703" viewBox="0 0 370.722 185.703"><defs><style>.a{fill:none;stroke:#383838;stroke-linecap:round;stroke-linejoin:round;stroke-width:0.5px;}</style></defs><path class="a" d="M556.346,81.944c-16.493,14.546-9.921,46.513,10.974,53.372,4.991,1.638,10.428,2.039,15.055,4.532s8.224,8.251,5.9,12.963c-1.238,2.507-3.782,4.036-6.055,5.66-17.43,12.458-21.6,42.215-4.413,55.006,8.162,6.074,19.051,7.384,27.449,13.123s12.4,20.306,3.475,25.18c-2.778,1.515-6.093,1.615-9.255,1.5-35.5-1.326-67.375-25.121-102.892-25.744-25.44-.445-49.311,11.024-73.26,19.615A339.608,339.608,0,0,1,293.69,266.688c-17.454-.789-35.652-3.226-49.983-13.223" transform="translate(-243.359 -81.591)"/></svg>