<svg xmlns="http://www.w3.org/2000/svg" width="230.049" height="264.156" viewBox="0 0 230.049 264.156"><defs><style>.a{fill:none;stroke:#383838;stroke-linecap:round;stroke-linejoin:round;stroke-width:0.5px;}</style></defs><path class="a" d="M496.456,504.8,607.4,498.569c5.971-.335,12.051-.662,17.863.654,6.009,1.362,11.459,4.424,17.5,5.652,11.562,2.349,23.246-2.258,34.7-5.019a113.237,113.237,0,0,1,48.527-.924c-.332,4.591-5.061,8.076-9.948,8.936s-9.9-.286-14.724-1.426c-2.688-.637-5.542-1.362-7.394-3.273-4.829-4.978.674-12.653,6.278-16.881s12.32-10.25,9.484-16.4c-2.209-4.794-8.995-6-14.6-5.507s-11.5,1.947-16.7-.051c-5.9-2.266-9.073-8.537-9.141-14.449s2.364-11.577,4.847-17.025c9.744-21.383,20.947-42.385,26.843-64.94s6.018-47.387-5.775-67.869c-5.234-9.089-12.6-16.993-18.081-25.96s-9.011-19.747-5.642-29.563" transform="translate(-496.192 -244.204)"/></svg>