<svg xmlns="http://www.w3.org/2000/svg" width="129.241" height="160.397" viewBox="0 0 129.241 160.397"><defs><style>.a{fill:none;stroke:#383838;stroke-linecap:round;stroke-linejoin:round;stroke-width:0.5px;}</style></defs><path class="a" d="M625.183,246.566l-62.216,3.777a33.566,33.566,0,0,1-10.018-.4c-3.37-.826-6.427-2.682-9.816-3.427-6.484-1.424-13.036,1.369-19.462,3.043a58.853,58.853,0,0,1-27.214.561c.186-2.784,2.838-4.9,5.579-5.418s5.554.173,8.258.865a8,8,0,0,1,4.147,1.985c2.708,3.019-.378,7.673-3.521,10.236s-6.909,6.215-5.319,9.946c1.239,2.907,5.044,3.635,8.19,3.339s6.447-1.18,9.365.031c3.311,1.374,5.088,5.176,5.126,8.762s-1.326,7.02-2.718,10.323c-5.464,12.966-11.748,25.7-15.054,39.378s-3.375,28.734,3.239,41.154c2.936,5.512,7.069,10.3,10.14,15.742s5.054,11.974,3.164,17.926" transform="translate(-496.206 -244.308)"/></svg>