<svg xmlns="http://www.w3.org/2000/svg" width="137.605" height="168.351" viewBox="0 0 137.605 168.351"><defs><style>.a{fill:none;stroke:#383838;stroke-linecap:round;stroke-linejoin:round;stroke-width:0.5px;}</style></defs><path class="a" d="M568.323,223.326c-38.146-14.536-80.286,12.839-120.778,7.661-.671-6.1,7.254-11.171,12.511-8-.469,11.164-15.287,14.169-24.369,20.679a10.323,10.323,0,0,0-4.014,4.738c-2.138,6.214,5.434,11.138,11.685,13.164s14.058,6.01,12.924,12.484c-.555,3.17-3.22,5.453-5.458,7.765-12.957,13.386-14.147,36.5-2.636,51.146,3.577,4.55,8.287,8.512,9.989,14.043,4.133,13.431-11.455,25.844-10.605,39.869" transform="translate(-431.04 -218.786)"/></svg>