<svg xmlns="http://www.w3.org/2000/svg" width="436.891" height="272.384" viewBox="0 0 436.891 272.384"><defs><style>.a{fill:#9d8855;}</style></defs><g transform="translate(-1052.642 -155.743)"><g transform="translate(1052.642 155.743)"><path class="a" d="M1159.811,242.947c-.742-1.434-2.441-2.642-5.4-2.676l-1.376-.016c-7.958-.108-13.1-.178-20,5.671a30,30,0,0,1-5.8,3.449,13.46,13.46,0,0,1-4.665,1.473,43.346,43.346,0,0,1-9.254-1.37,50.7,50.7,0,0,0-8.371-1.374,4.5,4.5,0,0,0-1.453.227,1.578,1.578,0,0,0-.472.262.989.989,0,0,0-.334,1.185l.828-.329-.828.332a1.09,1.09,0,0,0,.44.544l.006.009.007,0h0a48.562,48.562,0,0,0,13.954,3.255c7.142.613,15.155-.415,19.258-6.569.016-.024.024-.038.108-.17l0,0c2.184-3.43,5.935-3.43,9.975-3.43.13,0,.68-.009,1.251-.016,3.783-.05,8.573-.113,8.573,3.889v.935h.887a3.027,3.027,0,0,0,2.836-1.991,3.854,3.854,0,0,0,.273-1.614,4.051,4.051,0,0,0-.45-1.675" transform="translate(-1054.651 -159.139)"/><path class="a" d="M1112.077,261.241v-.026l-.019-.019a5.241,5.241,0,0,0-1.615-.635,8.726,8.726,0,0,0-1.956-.346h-2.61l-.016.044c-.256.774.3,1.245.96,1.805a4.769,4.769,0,0,1,1.287,1.447c1.683,3.646,1.642,9.278,1.607,14.063,0,.681-.01,1.347-.01,1.938v4.172a11.637,11.637,0,0,1-1.6,5.512l-.085.172c-.284.57-1.124.346-1.812.162l-.081-.022-.009,0h-.008a2.4,2.4,0,0,1-.811-.24,1.238,1.238,0,0,0-.615-.168c-.118.035-.165.141-.1.37l.012.047h.049a6.719,6.719,0,0,1,1.507.738c.173.1.312.179.388.218v0a5.948,5.948,0,0,0,2.113.632,3.334,3.334,0,0,0,1.791-.31c2.179-1.09,1.861-12.258,1.7-17.966-.033-1.115-.059-2.022-.059-2.608v-8.977Z" transform="translate(-1054.728 -159.942)"/><path class="a" d="M1143.052,268.761a10.78,10.78,0,0,0-.891-3.255,5.435,5.435,0,0,0-2.172-2.364l0,0h0c-3.681-1.741-6.321-1.687-9.675-1.621-.664.011-1.355.026-2.117.026h-.068v1.749h1.414c1.207,0,3.784,2.145,5.978,4.648,2.016,2.3,3.7,4.9,3.7,6.4v.079h.068a15.06,15.06,0,0,1,1.5.168,18.969,18.969,0,0,0,2.2.229h.066v-.079a9.213,9.213,0,0,1,.126-.953,14.391,14.391,0,0,0,.21-1.828,12.524,12.524,0,0,0-.194-1.916h0a8.874,8.874,0,0,1-.142-1.262v-.013Z" transform="translate(-1055.676 -159.993)"/><path class="a" d="M1126.348,274.025l.01.025.021.011.674.4.66.393a1.229,1.229,0,0,0,.7.36,3.446,3.446,0,0,0,.683.052h.068v-1.67a2.791,2.791,0,0,0-.357-1.645c-.239-.283-.5-.6-.779-.932-2.6-3.129-6.834-8.228-10.363-8.228-.4,0-.8,0-.057,1.315l.01.018.016.01,1.325.781.326.771.336.8.012.022.019.013.662.391c.452.533,1.1,1.2,1.8,1.925,1.635,1.684,3.6,3.707,4.228,5.2" transform="translate(-1055.236 -160.045)"/><path class="a" d="M1154.859,278.982a4.152,4.152,0,0,1-.488.589h0a8.592,8.592,0,0,0-1.872,3.857c-.655,2.218-1.322,4.482-4.48,5.431-.572.171-1.251.4-1.979.649a24.214,24.214,0,0,1-6.34,1.591c-.2,0-.576-.023-1.07-.052-.96-.059-2.365-.145-3.8-.145-2.825,0-5.775.336-5.775,1.865v.063h.064a9.387,9.387,0,0,1,2.416.46,10.265,10.265,0,0,0,2.714.5c5.081,0,8.507-.217,11.522-1.287s5.617-3,9.039-6.426a10.845,10.845,0,0,0,1.472-1.807,6.075,6.075,0,0,0,.79-1.749,18.3,18.3,0,0,0,.323-4.184v-.064h-.065c-1.967,0-2.1.187-2.474.707" transform="translate(-1055.713 -160.668)"/><path class="a" d="M1069.795,280.534l-.058-.064-.082-.025c-.019-.006-.159-.1-.355-.219a6.384,6.384,0,0,0-2.754-1.2v0c-.665,0-1.138.358-1.138,1.394h0a11.816,11.816,0,0,0,.677,3.61c.657,2.166,1.339,4.408-.547,8.948a1.024,1.024,0,0,1-.063.124,16.341,16.341,0,0,1-2.661,2.994c-1.141,1.037-2.328,1.876-2.863,1.655l-.033-.014c-1.313-.748-2.248-2.71-2.841-4.954a21.621,21.621,0,0,1-.61-8.323c.207-1.043.777-2.912,1.265-4.518.261-.858.5-1.642.652-2.193,1.157-4.213,1.508-6.207,1.39-6.865-.224-1.244-1.012-.4-1.956,1.174l0,.009a32.184,32.184,0,0,0-1.885,3.918,40.35,40.35,0,0,0-1.349,4.164,18.78,18.78,0,0,1-.813,2.244,11.409,11.409,0,0,0-1.122,4.892,12.158,12.158,0,0,0,1.237,5.017,12.9,12.9,0,0,1,1.228,4.5c.022.414.007.875-.013,1.346-.01.334-.026.674-.026.966,0,1.5.269,2.791,1.953,2.791.242,0,.6.315.979.65.822.725,1.734,1.531,2.763.546.076-.073.329-.3.7-.635,2.346-2.114,9.374-8.443,9.374-9.864v-8.014a9.413,9.413,0,0,0-.32-2.1,6.7,6.7,0,0,0-.724-1.956" transform="translate(-1052.642 -160.347)"/><path class="a" d="M1071.735,222.559l.955-2.363c0-.216-1.665-.374-1.62-2.508.06-2.736-.518-3.757,2.735-3.757l.69.689c0-1.727,1.046-3.148,1.381-4.487.083-.334.035-.881.345-1.035.617-.309,1.036-1.381,1.381-1.381a14.936,14.936,0,0,1,1.725-.346c0-.346.345-.346.691-.346,0-2.621,5.207-3.8,7.249-3.8v-.691l1.681-.184c.171-1.9-4.929-4.663-5.477-4.3-7.746,0-7.762-.312-13.806,3.8-2.394,1.627-7.484,18.3,2.07,20.71" transform="translate(-1053.185 -157.442)"/><path class="a" d="M1060.862,266.362h1.9v-.622c0-3,1.566-6.075,3.133-9.151a32.7,32.7,0,0,0,2.942-7.058l0-.019a26.8,26.8,0,0,0,.329-2.961,26.186,26.186,0,0,1,.312-2.808l.008-.056a22.385,22.385,0,0,1,1.509-5.063,19.1,19.1,0,0,0,1.05-3.236,3.709,3.709,0,0,1,1.977-2.63v0a4.737,4.737,0,0,0,2.51-3.451l.132-.732h-.743a14.436,14.436,0,0,0-2.743,1.114,6.824,6.824,0,0,0-1.318.82c-1.46.153-2.616,1.863-3.484,4.086a34.651,34.651,0,0,0-2.056,9.67,21.244,21.244,0,0,1-.393,3.994,25.619,25.619,0,0,1-1.167,4.125l-.009.021a16.724,16.724,0,0,1-1.3,2.417c-.253.421-.47.783-.591,1.027a29.5,29.5,0,0,0-1.848,5.15,20.191,20.191,0,0,0-.787,4.745h.624Z" transform="translate(-1052.947 -158.67)"/><path class="a" d="M1094.453,232.992a.779.779,0,0,0-.118-.5.934.934,0,0,0-.31-.305,1.71,1.71,0,0,0-1.4-.061,10.17,10.17,0,0,0-8.119,7.285,9.1,9.1,0,0,0-.236,3.955,7.423,7.423,0,0,0,2.652,4.595,2.352,2.352,0,0,0,1.518.137,1.576,1.576,0,0,0,.481-.2.911.911,0,0,0,.423-.575.978.978,0,0,0-.286-.9,10.543,10.543,0,0,1-2.04-3.121,5.344,5.344,0,0,1-.2-3.637,7.145,7.145,0,0,1,2.131-3.1,16.592,16.592,0,0,1,5-2.934.763.763,0,0,0,.5-.643" transform="translate(-1053.908 -158.809)"/><path class="a" d="M1107.968,319.738c-.533-.267-1.062-.532-1.577-.794a17.09,17.09,0,0,1-4.2-3.2,26.069,26.069,0,0,0-4.7-3.741c-.36-.516-1.389-.516-1.778-.516h-.624v.623c0,.69,2.665,3.319,5.826,5.939a58.609,58.609,0,0,0,7.882,5.695l.062.035.062.017a4.428,4.428,0,0,1,1.854.993,1.2,1.2,0,0,1,.349.548.5.5,0,0,1-.1.41,2.437,2.437,0,0,1-1.008.7l-.026.011c-.606.3-2.456-.161-4.017-.554a12.784,12.784,0,0,0-2.439-.476,57.684,57.684,0,0,1-5.943-1.05c-2.108-.447-4.012-.376-4.012-.57v-.14l-.068-.137a30.408,30.408,0,0,1-1.88-6.107c-.719-3.011-1.465-6.136-2.965-8.388l0,0h0a94.733,94.733,0,0,1-5.091-8.266l0-.007a49.082,49.082,0,0,1-2.808-6.4,28.4,28.4,0,0,1-1.5-6.535,1.275,1.275,0,0,0-.249-.694.805.805,0,0,0-.57-.3.9.9,0,0,0-.482.1,1.2,1.2,0,0,0-.471.454l-.073.14,0,.156.166,8.562h0c0,3.22,2.491,6.129,5.025,9.089,2.226,2.6,4.487,5.242,4.924,8v.009a15.558,15.558,0,0,0,.632,2.347,9.718,9.718,0,0,1,.639,3c0,.441-.024.905-.053,1.39-.032.583-.066,1.2-.066,1.763,0,2.344.5,4.523,3.309,4.523a43.088,43.088,0,0,1,5.974.9c4.983.939,11.24,2.117,14.42,1.043,1.9-.643,2.8-1.971,1.994-4.367-.4-1.189-3.445-2.711-6.42-4.194" transform="translate(-1053.638 -161.011)"/><path class="a" d="M1098.628,272.246a.058.058,0,0,0-.073.057c-.019.109.686,1.844,1.483,3.794.837,2.057,1.774,4.358,2.056,5.2a14.649,14.649,0,0,0,1.249,2.535,9.074,9.074,0,0,1,1.606,4.334v.016a.676.676,0,0,0,.16.344c.246.194.49-.748.556-2.294a27.491,27.491,0,0,0-.352-5.557c-.7-4.163-2.539-8.428-6.685-8.431" transform="translate(-1054.487 -160.426)"/><path class="a" d="M1093.488,259.292a.891.891,0,0,0,.15-.472c.019-.577-.56-1.147-1.54-1.68a21.909,21.909,0,0,0-3.307-1.367c-4.12-1.382-9.9-2.536-12.166-2.135-1.79.315.286,1.99.291,1.994l.135.109.182.007c4.648.172,10.508,2.131,13.561,3.151,1.488.5,2.419.808,2.694.392m-16.781-4.6.008.012-.008-.012" transform="translate(-1053.577 -159.675)"/><path class="a" d="M1077.244,260.585h6.97c.135,0,.507.464.878.925.558.695,1.116,1.389,1.909,1.389h.624v-.531c0-2.846-1.346-2.846-2.018-2.846h-9.757v1.062h1.394Z" transform="translate(-1053.575 -159.914)"/><path class="a" d="M1076.972,267.933c.438.215,1.294-.121,2.108-.442.476-.187.934-.367.984-.367h5.11c.1,0,.294.02.52.042.762.076,1.79.179,2.24-.194h0a1.01,1.01,0,0,0,.123-.126,1.827,1.827,0,0,0,0-2.022.863.863,0,0,0-.126-.126c-.633-.527-2.181-.37-3.456-.241-.466.047-.891.089-1.163.089a12.214,12.214,0,0,0-4.178.694,4.3,4.3,0,0,0-2.437,1.944.5.5,0,0,0,.273.748" transform="translate(-1053.606 -160.108)"/><path class="a" d="M1114.813,233.48c2.8-.616,6.124-1.349,5.867-3.844-.05-.494-.026-2.628-.01-4.11.008-.672.015-1.241.015-1.277v-.622h-.623a.449.449,0,0,1-.3-.087.988.988,0,0,0-.659-.234h-.621v.623c0,.553.048,1.241.1,1.974a14.3,14.3,0,0,1-.073,4.258c-.263.857-1.656,1.059-3.2,1.282-2.853.412-6.127.883-6.127,5.309,0,3.056-5.611,4.876-8.738,5.89h0c-.165.054-.305.1-.726.239l-2.565.641-.036.01-.039.015a8.813,8.813,0,0,1-2.659.6v1.246a34.061,34.061,0,0,0,11.03-1.756c2.555-.972,4.719-2.465,5.58-4.739a6.518,6.518,0,0,0,.055-1.807c-.006-.16-.013-.291-.013-.4,0-.205.724-2.066.812-2.294.139-.3,1.447-.589,2.932-.916" transform="translate(-1054.321 -158.459)"/><path class="a" d="M1085.753,213.506v-.32c-.961,0-.961,0-2.243.961,0,.963.641.963.961.963h1.6c0-.322-.32-.322-.32-.963v-.641Z" transform="translate(-1053.883 -158.052)"/><path class="a" d="M1091.08,214.7c0,.326,1.389-.235,1.71-.235h.32a4.65,4.65,0,0,0,.047-1.325c-1.344-.061-2.09.19-2.077,1.56" transform="translate(-1054.187 -158.05)"/><path class="a" d="M1094.3,198.867a7.186,7.186,0,0,0-2.565.221c0,.962-.188.795-.508,1.757.556-1.3,2.072.223,3.072-1.978" transform="translate(-1054.193 -157.476)"/><path class="a" d="M1103.77,193.992a2.814,2.814,0,0,0-1.924.641c-.32,0-.963,1.282-1.282,1.6,1.764.653,3.34-1.594,3.207-2.245" transform="translate(-1054.568 -157.281)"/><path class="a" d="M1082.393,368.035c.338-6.28.509-18.374.074-28.362a105.847,105.847,0,0,0-.982-11.43c-.549-3.411-1.469-5.524-2.884-5.524v0a1.564,1.564,0,0,0-.21.017l-.1.011-.093.034c-1.767.615-1.249,15.149-.695,30.676.328,9.232.671,18.826.671,25.957,0,6.22-.319,12.488-.638,18.759-.322,6.347-.646,12.7-.646,18.852a1.815,1.815,0,0,0,.962,1.357,8.877,8.877,0,0,0,1.427.756,4.4,4.4,0,0,0,1.537.4v0a1.233,1.233,0,0,0,1.089-.534v0c1-1.49.752-20.535.561-35.07-.1-7.762-.185-14.22-.074-15.878Z" transform="translate(-1053.617 -162.454)"/><path class="a" d="M1091.448,405.824c-.052-1.4-.09-2.469-.09-3.03v0l-.009-.084a175.4,175.4,0,0,1-.271-19.758c.187-8.125.374-16.367-.677-24.186-.075-.838-.033-2.765.019-5.122.1-4.667.239-10.99-.425-14.477-.417-2.192-1.233-3.482-2.664-3.212l-.47.091-.223.419a5.51,5.51,0,0,0-.262,2.536c.01.218.018.416.018.523v0l-.536,69.932,0,0c0,.6-.1,1.883-.224,3.45-.362,4.653-.909,11.692.509,12.8,1.374,1.072,2.954-.546,4.085-1.7.184-.188.352-.362.5-.5l-.037-.037c1.342-1.788.966-12.121.764-17.65" transform="translate(-1053.951 -162.984)"/><path class="a" d="M1149.038,359.814c0-4.757.319-9.609.638-14.46.322-4.908.645-9.818.645-14.581a20.6,20.6,0,0,0-.751-3.193,60.67,60.67,0,0,0-2.521-7.165c-1.131-2.566-2.476-4.547-3.884-4.547v0a1.751,1.751,0,0,0-.471.069l-.224.066-.17.155a2.689,2.689,0,0,0-.71,1.077,3.737,3.737,0,0,0-.21,1.293l.558,100.323h0c0,4.363,2.055,6.63,4.5,7.674a9.15,9.15,0,0,0,2.84.682,10.324,10.324,0,0,0,2.588-.115c1.676-.294,2.873-1.109,2.941-1.973.994-12.392-.869-24.206-2.739-36.085-1.51-9.588-3.027-19.218-3.027-29.218" transform="translate(-1056.208 -162.179)"/><path class="a" d="M1131.6,399.862l0-.028c-.365-3.243-.461-11.942-.577-22.653-.231-21.138-.547-50.07-3.191-60.879-.856-3.5-2.1-5.344-3.857-4.915-1.179.288-1.18,1.124-1.181,2.113h0v.007h0c-.026,11.232-.267,22.4-.5,33.515-.606,28.278-1.206,56.222,1.732,84.413a3.064,3.064,0,0,0,2.188,2.735,4.79,4.79,0,0,0,2.281.134,7.181,7.181,0,0,0,2.368-.863,8.722,8.722,0,0,0,4.277-7.788c0-4.473-.974-9.885-1.922-15.147-.677-3.762-1.339-7.444-1.609-10.644" transform="translate(-1055.421 -161.996)"/><path class="a" d="M1110.218,394.082v0c-.485-7.921-.421-17.732-.359-26.768.021-3.2.042-6.314.042-8.4a32.665,32.665,0,0,0-1.4-8.077c-.849-2.943-1.984-5.492-2.91-6.083l-.4-.253-.446.149c-1.162.389-1.631,17.589-1.794,36.67-.163,19.164-.165,39.443-.165,47.1,0,.808,0,1.039,0,1.255,0,.5-.01.8-.01.881,0,2.821.292,3.614,2.928,3.614a8.314,8.314,0,0,0,5.338-1.467c1.492-1.176,2.516-3.182,2.7-6.581h0c.586-6.956-.571-13.173-1.734-19.426a100.758,100.758,0,0,1-1.791-12.608" transform="translate(-1054.657 -163.329)"/><path class="a" d="M1125.675,195.562v.083a18.322,18.322,0,0,1-3.572,10.981,28.572,28.572,0,0,1-10.5,8.418,4.319,4.319,0,0,0-1.211,2.288,17.381,17.381,0,0,0-.771,4.093v.1l.094-.047a3.311,3.311,0,0,0,1.221-1.335,6.211,6.211,0,0,0,.759-2.119c.026-.208.9-.731,2.216-1.52,4.408-2.639,13.715-8.213,13.351-16-.013-.279,0-.613.007-.974.046-1.538.107-3.545-1.516-3.951Z" transform="translate(-1054.932 -157.344)"/><path class="a" d="M1121.892,235.273v2.339l1.609-1.7c.929-.979,2.1-2.332,3.455-3.887,5.206-6,13.081-15.068,19.158-16.776l3.634-1.019-3.694-.79a4.958,4.958,0,0,0-1.041-.107c-3.628,0-9.064,3.656-13.732,8.089-4.639,4.4-8.588,9.64-9.271,12.836a4.867,4.867,0,0,0-.117,1.011" transform="translate(-1055.425 -158.058)"/><path class="a" d="M1105.243,206.586v-.553c0,.705-2.987,1.048-2.987,2.415-.833.014-3.125.5-3.044,1.476.009.083,6.031,2.186,6.031-3.338" transform="translate(-1054.514 -157.765)"/><path class="a" d="M1103.272,214.844c3.533.037,8.149-1.431,8.217-6.764,0-.094-.248-.146-.283.09-.836,5.514-6.162,6.366-8.169,6.276-.076,0-.246.393.235.4" transform="translate(-1054.664 -157.844)"/><path class="a" d="M1077.8,182.452a.932.932,0,0,0,.62-1.16,17.068,17.068,0,0,1-.753-5.4,16.6,16.6,0,0,1,1-5.3,19.433,19.433,0,0,1,10.947-11.049,25.472,25.472,0,0,1,17.2-.835q.725.219,1.387.458a22.552,22.552,0,0,1,11.908,9.609,17.134,17.134,0,0,1,1.781,13.688c-.1.319-.2.622-.3.913a.537.537,0,0,0-.033.094c-.033.085-.029.069-.05.124a.932.932,0,1,0,1.753.634c.045-.126.029-.084.034-.1.035-.087.031-.074.049-.123q.189-.525.338-1.015a18.967,18.967,0,0,0-1.958-15.162,24.408,24.408,0,0,0-12.885-10.418c-.5-.18-1-.346-1.489-.493a27.322,27.322,0,0,0-18.461.907,21.277,21.277,0,0,0-11.972,12.13,18.464,18.464,0,0,0-1.107,5.894,18.893,18.893,0,0,0,.832,5.973.93.93,0,0,0,1.161.62" transform="translate(-1053.573 -155.743)"/><path class="a" d="M1101.277,190.47a4.836,4.836,0,0,0-3.471,1.512c-.415.414-.226,2.235-.226,2.772-.188-.17,2.657-4.255,3.7-4.284" transform="translate(-1054.446 -157.139)"/><path class="a" d="M1088.728,197.445a1.435,1.435,0,0,1,.2-.118l.031-.014c.078-.036.165-.07.259-.1a.237.237,0,0,0,.043-.013c.1-.032.2-.06.305-.09l.055-.014c.11-.028.224-.053.343-.078.021,0,.04-.008.062-.011.121-.026.246-.047.374-.068l.056-.01c.133-.021.27-.04.407-.059l.04,0c.142-.017.287-.036.433-.05l.015,0c.145-.014.292-.027.436-.038l.026,0q.213-.017.419-.029l.043,0c.132-.008.262-.012.388-.017l.049,0c.123,0,.241-.007.353-.008a.357.357,0,0,0,.045,0c.112,0,.217,0,.316,0h.035c.1,0,.187,0,.268.01a.09.09,0,0,0,.023,0l.213.019.01,0a.822.822,0,0,1,.144.029c-.175-.118-.449-.322-.755-.531l-.013-.009c-.05-.034-.1-.069-.15-.1l-.032-.021-.14-.092-.042-.026-.132-.084-.05-.029c-.042-.026-.085-.051-.125-.073l-.057-.033c-.038-.021-.079-.041-.118-.061-.019-.011-.038-.021-.057-.029-.037-.019-.074-.036-.109-.052-.019-.008-.04-.019-.058-.027-.036-.015-.067-.026-.1-.039l-.056-.021c-.035-.011-.065-.019-.1-.026l-.051-.014c-.032-.006-.06-.01-.091-.012-.013,0-.028,0-.041,0a.549.549,0,0,0-.114.007,4.849,4.849,0,0,0-3.155,2.1.623.623,0,0,1,.141-.137l.011-.01" transform="translate(-1054.086 -157.341)"/><path class="a" d="M1094.352,196.829l.061.04a.036.036,0,0,0-.017-.021.126.126,0,0,0-.044-.019" transform="translate(-1054.318 -157.395)"/><path class="a" d="M1101.64,204.323c-.047,0-.1.01-.152.017l-.011,0a1.317,1.317,0,0,0-.166.038,1.367,1.367,0,0,0-.165.066l-.031.012a1.861,1.861,0,0,0-.161.1c-.01.007-.019.016-.029.024a1.112,1.112,0,0,0-.157.141l-.008.006a1.771,1.771,0,0,0-.146.194.43.43,0,0,1-.027.044,1.723,1.723,0,0,0-.123.247c-.007.016-.012.036-.019.054a2.157,2.157,0,0,0-.1.327c.1-.074.2-.143.284-.209l.073-.059c.059-.045.114-.09.166-.131l.063-.055c.048-.04.093-.08.133-.117.014-.012.031-.027.044-.04.047-.041.087-.081.124-.117l.015-.016c.409-.418.264-.511.394-.53h0Z" transform="translate(-1054.559 -157.696)"/><path class="a" d="M1101.766,204.318h0a.406.406,0,0,0-.069,0,.12.12,0,0,1,.027,0,.111.111,0,0,0-.027,0c.072,0,.138-.007.185-.007l-.073,0,.073,0-.114,0" transform="translate(-1054.613 -157.696)"/><path class="a" d="M1098.555,205.795c.028-.027.066-.062.109-.1l-.04.036,0,0-.062.061,0,0v0m.04-.038-.037.036c.012-.01.025-.023.037-.036" transform="translate(-1054.487 -157.751)"/><path class="a" d="M1098.67,205.685h0a.07.07,0,0,1,.019-.01c.059-.019.052.121.418.222l.014,0a1.161,1.161,0,0,0,.119.026c.013,0,.028.007.042.009.037.008.079.014.123.019l.057.006c.047.007.1.012.149.015l.065,0c.076,0,.156.008.247.011a2.161,2.161,0,0,0-.187-.211l-.034-.033a1.1,1.1,0,0,0-.168-.133l-.033-.02a.922.922,0,0,0-.161-.076h-.007a.6.6,0,0,0-.147-.028l-.026,0a.583.583,0,0,0-.132.013l-.024,0a.754.754,0,0,0-.234.1l-.008,0c-.035.023-.064.047-.094.071" transform="translate(-1054.492 -157.743)"/><path class="a" d="M1081.884,189.965c0,.731.976,1.464,1.1.731,0-3.172,1.708-2.685,1.708-4.758,2.685,0,1.953-1.343,3.905-1.343,3.172,0,3.42-2.668,5.98-3.05,2.321-.349,2.663-2.375,5.246-1.587.234.071,2.442.244,2.686.244,2.562,0,5.49,3.416,8.419,3.416,2.807,0,5.248,1.1,8.054,1.1v-1.1c1.221,0-.366-2.928-.366-3.173-.121-.609-1.709-2.928-1.709-3.171-.731,0-4.27.366-4.514-.123-1.1-1.588-7.08-2.563-9.277-2.563-2.317,0-4.026.61-6.222.61-.732,0-5.613.854-5.98,1.342-.858,1.17-3.51,1.791-5.5,2.535,6-12.193,21.336-11.09,27.207-2.037-5.386-14.027-26.946-9.166-27.233,2.046-1.113.417-2.019.872-2.281,1.484-.488,1.1-.733,3.172-1.709,4.392-.367.49,1.587,5,.487,5" transform="translate(-1053.796 -156.253)"/><path class="a" d="M1079.358,277.859c1.1-.837,1.583-1.313,1.424-1.623s-.921-.392-2.318-.465c-.542-.029-1.365-.05-2.316-.073a50.782,50.782,0,0,1-7.709-.526c-.128-.033-.184-.052-.181-.061a5.325,5.325,0,0,1,1.564-.453c1.166-.263,2.527-.57,2.527-.968v-.063h-.064c-.3,0-.727.054-1.214.111a8.831,8.831,0,0,1-3.28.019c-.649-.211-1-.694-.68-1.676a.794.794,0,0,0,.042-.5.28.28,0,0,0-.267-.182,1.028,1.028,0,0,0-.4.083,4.047,4.047,0,0,0-1.372.966,4.933,4.933,0,0,1-.977.806c-.109.076-.211.147-.3.213l0,0a9.258,9.258,0,0,0-1.479,1.491,3.277,3.277,0,0,0-.774,1.9v.068l.068,0c.29-.017.62-.056.973-.1a8.837,8.837,0,0,1,4.4.263h0a27.866,27.866,0,0,0,7.367,1.407c2.141.133,4.1,0,4.963-.643" transform="translate(-1053.001 -160.392)"/><path class="a" d="M1086.36,220.889a2.962,2.962,0,0,0,.493.683l-.021.037c.027.008.053.012.081.019a2.623,2.623,0,0,0,2.829.339,4.343,4.343,0,0,0,1.388-.358v-.527c-.081.024-.162.042-.244.063a2.9,2.9,0,0,0-1.785-.056c-.062.012-.119.026-.175.037-.081.021-.155.04-.213.06a.752.752,0,0,0-.516-.326c-.058-.014-.121-.025-.186-.036-.705-.108-1.668.031-1.8-.208Z" transform="translate(-1053.991 -158.351)"/></g><g transform="translate(1177.637 230.454)"><path class="a" d="M1186.781,284.012V271.992l4.241-.392,1.1,6.6c1.492,3.617,6.046,6.364,11.545,6.364,6.364,0,9.9-3.534,9.9-8.091,0-5.577-5.185-8.009-10.607-10.838-6.283-3.143-13.2-6.911-13.2-16.259,0-7.775,5.892-15.79,18.539-15.79,7.777,0,12.255,1.492,15.161,2.986l.471,11.232h-4.085c-1.257-7.07-3.536-10.056-10.526-10.056-4.162,0-8.246,2.6-8.246,7.15,0,4.791,5.5,7.462,11.308,10.445,6.6,3.456,13.983,7.544,13.983,16.262,0,8.8-6.911,17.124-21.915,17.124-10.213,0-14.531-2.432-17.674-4.712" transform="translate(-1183.028 -233.582)"/><path class="a" d="M1238.007,281.324c0-7.144,7.934-11.232,19.639-11.308v-8.482c0-1.655-2.121-3.069-4.164-3.069a6.676,6.676,0,0,0-3.453.706v2.75c0,.317-5.579,3.223-9.349,3.223-1.178,0-1.649-.548-1.649-2.045,0-3.844,6.2-8.4,17.124-8.4,6.284,0,12.723,2.356,12.723,5.419v18.618c0,3.141.08,5.5.157,5.813l5.028.314v2.749a25.378,25.378,0,0,1-8.485,1.883c-4.632,0-7.067-1.49-7.461-5.183-2.277,2.359-5.5,5.183-10.213,5.183-5.812,0-9.9-3.217-9.9-8.169m19.639.473v-8.562c-5.262.077-8.955,1.965-8.955,5.5,0,3.3,2.042,4.868,4.635,4.868a6.082,6.082,0,0,0,4.32-1.805" transform="translate(-1185.087 -234.431)"/><path class="a" d="M1282.358,284.78l4.161-.233a41.073,41.073,0,0,0,.16-5.813v-16.5l-4.4-.392V259.1l13.432-4.4h2.2v6.129c3.537-3.693,8.092-6.129,12.567-6.129,6.129,0,9.742,3.85,9.742,10.21v13.827c0,3.14.078,5.5.157,5.813l4.241.233v3.537c-1.729-.08-7.225-.156-10.054-.156-2.75,0-6.99.077-8.719.156V284.78l2.983-.233a41.073,41.073,0,0,0,.16-5.813v-12.8a4.5,4.5,0,0,0-4.872-4.717c-2.435,0-4.715,1.731-6.206,4.01v13.51c0,3.14.081,5.5.157,5.813l2.986.233v3.537c-1.729-.08-5.812-.156-8.8-.156-2.906,0-8.169.077-9.9.156Z" transform="translate(-1186.866 -234.431)"/><path class="a" d="M1337.876,285.371l.784-24.194-5.812.391V257.64l13.827-7.857,2.826.553-.391,5.342h10.21v5.105h-10.29V277.67c0,5.028,1.571,6.05,5.736,6.05a13.622,13.622,0,0,0,5.262-1.258l.865,3.22c-2.826,2.125-7.7,3.614-13.354,3.614-4.871,0-9.036-1.175-9.663-3.925" transform="translate(-1188.899 -234.233)"/><path class="a" d="M1368.365,272.214c0-9.976,8.324-17.517,19.482-17.517,10.758,0,18.929,7.07,18.929,16.417,0,10.137-8.642,18.381-19.246,18.381-10.918,0-19.166-7.463-19.166-17.28m26.316.237c0-8.959-2.6-14.141-7.071-14.141-4.948,0-7.147,4.164-7.147,13.747,0,8.485,2.749,13.823,7.067,13.823s7.15-5.182,7.15-13.43" transform="translate(-1190.326 -234.431)"/><path class="a" d="M1214.686,340.8h-14.928l-4.4,12.96,7.541.707v3.77c-1.885-.08-6.364-.236-10.448-.236-3.141,0-7.7.156-9.583.236v-3.77l6.834-.787,8.641-22.546,9.82-26.157h7.618l9.269,26.083,8.012,22.934,7.935.473v3.77c-1.882-.08-9.82-.236-14.3-.236-4.869,0-12.96.156-14.845.236v-3.77l7.227-.473Zm-7.464-21.918L1202.744,332l-1.178,3.454h11.311l-1.1-3.454Z" transform="translate(-1182.871 -236.451)"/><path class="a" d="M1252.67,355.522l4.165-.233a42.093,42.093,0,0,0,.156-5.813v-16.5l-4.4-.392V329.84l13.434-4.4h2.2v6.129c3.536-3.693,8.094-6.129,12.569-6.129,6.126,0,9.74,3.85,9.74,10.21v13.827c0,3.14.08,5.5.159,5.813l4.239.233v3.537c-1.729-.08-7.224-.156-10.054-.156-2.749,0-6.993.077-8.721.156v-3.537l2.986-.233a42.093,42.093,0,0,0,.156-5.813v-12.8a4.5,4.5,0,0,0-4.871-4.717c-2.433,0-4.709,1.731-6.2,4.01v13.51c0,3.14.08,5.5.156,5.813l2.986.233v3.537c-1.728-.08-5.812-.156-8.8-.156-2.9,0-8.168.077-9.9.156Z" transform="translate(-1185.673 -237.274)"/><path class="a" d="M1308.191,356.113l.784-24.194-5.813.391v-3.928l13.824-7.857,2.829.553-.393,5.342h10.213v5.105h-10.294v16.887c0,5.028,1.572,6.05,5.736,6.05a13.632,13.632,0,0,0,5.266-1.258l.864,3.22c-2.829,2.125-7.7,3.614-13.354,3.614-4.871,0-9.035-1.175-9.663-3.925" transform="translate(-1187.705 -237.076)"/><path class="a" d="M1338.677,342.067c0-9.976,8.328-17.518,19.482-17.518,10.759,0,18.93,7.07,18.93,16.417,0,10.137-8.638,18.381-19.243,18.381-10.92,0-19.168-7.464-19.168-17.28m17.755-38.725h2.355l9.426,16.73h-4.4l-6.206-10.6-6.363,10.6h-4.4Zm8.561,38.963c0-8.959-2.592-14.141-7.07-14.141-4.949,0-7.148,4.164-7.148,13.747,0,8.485,2.75,13.823,7.07,13.823s7.148-5.182,7.148-13.43" transform="translate(-1189.133 -236.386)"/><path class="a" d="M1387.121,355.522l4.161-.233a41.387,41.387,0,0,0,.159-5.813v-16.5l-4.4-.392V329.84l13.433-4.4h2.2v6.129c3.537-3.693,8.094-6.129,12.57-6.129,6.126,0,9.739,3.85,9.739,10.21v13.827c0,3.14.08,5.5.16,5.813l4.238.233v3.537c-1.728-.08-7.224-.156-10.053-.156-2.75,0-6.993.077-8.722.156v-3.537l2.986-.233a42.093,42.093,0,0,0,.156-5.813v-12.8a4.5,4.5,0,0,0-4.871-4.717c-2.433,0-4.709,1.731-6.2,4.01v13.51c0,3.14.08,5.5.157,5.813l2.986.233v3.537c-1.729-.08-5.812-.156-8.8-.156-2.9,0-8.169.077-9.9.156Z" transform="translate(-1191.077 -237.274)"/><path class="a" d="M1439,354.676l4.164-.234a42.055,42.055,0,0,0,.156-5.813v-16.5l-4.4-.391V329l13.433-4.4h2.2v24.035c0,3.143.08,5.5.157,5.813l4.164.234v3.539c-1.729-.083-6.987-.159-9.973-.159-2.906,0-8.172.077-9.9.159ZM1441.433,311a6.539,6.539,0,0,1,6.6-6.6,6.6,6.6,0,1,1,0,13.194,6.536,6.536,0,0,1-6.6-6.6" transform="translate(-1193.161 -236.428)"/><path class="a" d="M1467.807,342.956c0-9.976,8.328-17.518,19.479-17.518,10.761,0,18.932,7.07,18.932,16.417,0,10.137-8.642,18.381-19.246,18.381-10.917,0-19.165-7.463-19.165-17.28m26.316.237c0-8.959-2.592-14.141-7.07-14.141-4.949,0-7.148,4.164-7.148,13.747,0,8.485,2.75,13.823,7.067,13.823s7.151-5.182,7.151-13.43" transform="translate(-1194.323 -237.274)"/></g></g></svg>