<svg xmlns="http://www.w3.org/2000/svg" width="27.457" height="27.457" viewBox="0 0 27.457 27.457"><defs><style>.a{fill:#9d8855;}</style></defs><g transform="translate(0 0)"><path class="a" d="M27.349,19.711,21.5,12.167a.5.5,0,0,0-.341-.2,1.317,1.317,0,0,1-.78-.534,2.506,2.506,0,0,1-.223-1.9.536.536,0,0,0-.757-.582A3.358,3.358,0,0,0,17.5,11.124a3.253,3.253,0,0,0-.075.361,4.437,4.437,0,0,0-2.93,1.562l-.365.435a8.442,8.442,0,0,1-1.49,1.392L9.492,11.612A2.59,2.59,0,0,1,8.8,9.406l.074-.449L10.4,7.991l.29.2a2.012,2.012,0,0,0,2.435-.14l.387-.332.511.258a.536.536,0,0,0,.75-.306l.514-1.512.831-1.728a.536.536,0,0,0,.041-.106A3.432,3.432,0,0,0,9.551,2.484L9.02,3.534A2.47,2.47,0,0,1,7.243,4.847a.525.525,0,0,0-.06.014L.39,6.86a.536.536,0,0,0-.385.514v6.891a.536.536,0,0,0,.825.452l2.959-1.891a2.56,2.56,0,0,0,1.3,1.187l5.006,2.119a8.386,8.386,0,0,1-3.478.269l-6-.793a.536.536,0,0,0-.606.532V26.921a.536.536,0,0,0,.536.536H13.733a.536.536,0,1,0,0-1.073H9.763a1.5,1.5,0,0,1-1.283-.714L7.439,23.992a.536.536,0,1,0-.912.565l1.041,1.679c.032.051.065.1.1.149H1.078V16.751l5.394.713a9.476,9.476,0,0,0,4.66-.56,9.387,9.387,0,0,0,.879-.4l4.6,2.532-4.021,3.608c-.284-.258-.52-.469-.7-.627-.152-.131-.268-.227-.356-.293-.433-.327-.714-.16-.843-.031a.537.537,0,0,0,.19.881c.267.2,1.36,1.172,3.669,3.369a1.349,1.349,0,0,1,.417.973.536.536,0,0,0,1.073,0,2.426,2.426,0,0,0-.75-1.75c-.518-.493-1.229-1.166-1.9-1.793L17.44,19.74a2.951,2.951,0,0,0,2.234,1.015h1.147l2.928,1.8a.536.536,0,0,0,.281.079h1.752a.536.536,0,0,0,.469-.275L27.394,20.3A.537.537,0,0,0,27.349,19.711ZM14.453,5.425a1.273,1.273,0,0,1-.585-.329,1.385,1.385,0,0,1-.264-.377L13.6,4.708a2.129,2.129,0,0,1-.17-.564l1.453.389Zm-.994-4.271A2.364,2.364,0,0,1,15.207,3.51l-4.44-1.19A2.364,2.364,0,0,1,13.459,1.154Zm-3.126,2.16,1.986.532c.006.11.015.218.029.322L10.2,3.577Zm1.176,12.253L5.5,13.023a1.5,1.5,0,0,1-.926-1.386v-2.2a.536.536,0,1,0-1.073,0v2.2q0,.05,0,.1L1.078,13.286V7.775L7.456,5.9a3.55,3.55,0,0,0,2.2-1.359l3.1.852a2.4,2.4,0,0,0,.361.464,2.316,2.316,0,0,0,.957.576l-.1.308L13.68,6.6a.536.536,0,0,0-.592.072l-.658.566A.937.937,0,0,1,11.3,7.3l-.581-.394a.536.536,0,0,0-.587-.009L9.11,7.541l.044-.267A.536.536,0,1,0,8.1,7.1l-.35,2.132a3.667,3.667,0,0,0,.974,3.124l2.992,3.1C11.645,15.5,11.577,15.532,11.509,15.567Zm10.859-.447a.538.538,0,0,0,.065,0l.322.416a3.271,3.271,0,0,1-1.471-.412ZM18.532,11.4a2.073,2.073,0,0,1,.485-.878,2.873,2.873,0,0,0,.5,1.545,2.4,2.4,0,0,0,1.251.9l.179.231a4.346,4.346,0,0,0-2.024.491A3.156,3.156,0,0,1,18.532,11.4Zm-1.9,6.422-3.553-1.955a9.458,9.458,0,0,0,1.871-1.7l.365-.435a3.366,3.366,0,0,1,2.109-1.17,4.953,4.953,0,0,0,.616,1.741c-.055.049-.109.1-.161.152A4.306,4.306,0,0,0,16.63,17.825Zm3.044,1.857a1.881,1.881,0,0,1-1.659-.985L18,18.678l0,0L18,18.663a1.914,1.914,0,0,1-.124-.3.534.534,0,0,0-.113-.2,3.235,3.235,0,0,1,.453-2.425l1.905,3.94Zm5.792,1.877H24.181l-2.794-1.715L19,14.906a3.235,3.235,0,0,1,.7-.392.535.535,0,0,0,0,.136c.01.081.286,1.977,3.629,1.977a.533.533,0,0,0,.233-.054l2.723,3.515Z" transform="translate(-0.005 0)"/></g><g transform="translate(5.523 22.256)"><path class="a" d="M104.01,415.282l-.016-.026a.536.536,0,1,0-.912.565l.016.026a.536.536,0,1,0,.912-.565Z" transform="translate(-103.001 -415.002)"/></g><g transform="translate(24.025 19.896)"><path class="a" d="M448.588,371a.59.59,0,1,0,.59.59A.591.591,0,0,0,448.588,371Z" transform="translate(-447.998 -371.004)"/></g></svg>