<svg xmlns="http://www.w3.org/2000/svg" width="25.054" height="24" viewBox="0 0 25.054 24"><defs><style>.a{fill:#9d8855;}</style></defs><path class="a" d="M14.068,3.123H25.535A3.273,3.273,0,0,1,27.2,2.089l4.329-1.1a.533.533,0,0,1,.533.842L30,4.5l7.463,13.828.064.139c1.551,3.55-.538,6.514-3.47,6.514a3.977,3.977,0,0,1-3.588-2.26c-7.783-4.968-7.463-4.745-7.5-4.8a5.283,5.283,0,0,1-1.722-2.538c-3.732,0-5.864.768-7.218,4.435A.533.533,0,0,1,13,19.649V4.189A1.066,1.066,0,0,1,14.068,3.123Zm0,14.26c1.727-2.612,4.19-3.012,6.962-3.049a5.331,5.331,0,0,1,5.3-5.88.533.533,0,0,1,0,1.066,4.265,4.265,0,0,0-2.7,7.565c8.22,5.251,7.549,4.8,7.65,4.92s.091.128.091.133a2.932,2.932,0,0,0,5.624-1.157,4.7,4.7,0,0,0-.48-2.164L29.3,5.426,28.35,6.647A.533.533,0,1,1,27.507,6L30.29,2.414l-2.831.709a2.212,2.212,0,0,0-1.6,1.7.543.543,0,1,1-1.066-.2,2.857,2.857,0,0,1,.117-.432H23.664a1.6,1.6,0,0,0-1.6,1.6.533.533,0,0,1-1.066,0,2.623,2.623,0,0,1,.533-1.6H21a1.6,1.6,0,0,0-1.6,1.6.533.533,0,1,1-1.066,0,2.623,2.623,0,0,1,.533-1.6h-.533a1.6,1.6,0,0,0-1.6,1.6.533.533,0,0,1-1.066,0,2.623,2.623,0,0,1,.533-1.6H14.068Z" transform="translate(-13.002 -0.98)"/></svg>