<svg xmlns="http://www.w3.org/2000/svg" width="29.234" height="29.234" viewBox="0 0 29.234 29.234"><defs><style>.a{fill:#9d8855;}</style></defs><path class="a" d="M25.3,0H3.941A3.939,3.939,0,0,0,0,3.939V25.294a3.939,3.939,0,0,0,3.939,3.939H14.474l.018-10.447H11.777a.64.64,0,0,1-.64-.638l-.013-3.367a.64.64,0,0,1,.64-.643h2.709V10.885c0-3.776,2.306-5.832,5.674-5.832h2.764a.64.64,0,0,1,.64.64V8.533a.64.64,0,0,1-.64.64h-1.7c-1.832,0-2.187.87-2.187,2.148v2.817h4.025a.64.64,0,0,1,.636.716l-.4,3.367a.64.64,0,0,1-.636.565H19.048L19.03,29.234H25.3a3.939,3.939,0,0,0,3.939-3.939V3.939A3.939,3.939,0,0,0,25.3,0Z" transform="translate(-0.002)"/></svg>