<svg xmlns="http://www.w3.org/2000/svg" width="29.245" height="29.245" viewBox="0 0 29.245 29.245"><defs><style>.a{fill:#9d8855;}</style></defs><path class="a" d="M20.533,0H8.712A8.722,8.722,0,0,0,0,8.712V20.533a8.722,8.722,0,0,0,8.712,8.712H20.533a8.722,8.722,0,0,0,8.712-8.712V8.712A8.722,8.722,0,0,0,20.533,0ZM26.3,20.533a5.77,5.77,0,0,1-5.77,5.77H8.712a5.77,5.77,0,0,1-5.77-5.77V8.712a5.77,5.77,0,0,1,5.77-5.77H20.533a5.77,5.77,0,0,1,5.77,5.77V20.533Z"/><path class="a" d="M140.564,133a7.564,7.564,0,1,0,7.564,7.564A7.572,7.572,0,0,0,140.564,133Zm0,12.186a4.622,4.622,0,1,1,4.622-4.622A4.622,4.622,0,0,1,140.564,145.186Z" transform="translate(-125.941 -125.941)"/><ellipse class="a" cx="1.812" cy="1.812" rx="1.812" ry="1.812" transform="translate(20.389 5.303)"/></svg>