<svg xmlns="http://www.w3.org/2000/svg" width="117.594" height="154.708" viewBox="0 0 117.594 154.708"><defs><style>.a{fill:none;stroke:#383838;stroke-linecap:round;stroke-linejoin:round;stroke-width:0.5px;}</style></defs><path class="a" d="M198.214,129.023a841.078,841.078,0,0,0,96.754-5.587c3.866-.448,7.9-.985,11.1-3.2s5.213-6.66,3.426-10.118c-1.176-2.276-3.66-3.582-6.132-4.256-6.024-1.644-12.982-.081-17.266,4.461s-5.34,12.03-1.945,17.271c3.65,5.632,11.368,8,14.056,14.151,3.048,6.972-1.826,14.568-5.064,21.453-7.311,15.547-6.437,33.948-1.268,50.332s14.3,31.185,23.34,45.8" transform="translate(-197.964 -104.961)"/></svg>